<svg width="221" height="44" viewBox="0 0 221 44" fill="none" xmlns="http://www.w3.org/2000/svg">
<path fill-rule="evenodd" clip-rule="evenodd" d="M86.1146 33.5949V21.2154C86.1146 16.9815 88.0383 14.5885 90.7671 14.5885C93.2276 14.5885 94.6144 16.2912 94.6144 19.4666V33.5949H99.4011V18.5002C99.4011 13.2079 96.7617 9.80235 92.0645 9.80235C89.2461 9.80235 87.2778 10.8608 86.1146 13.0238V0H81.3727V33.5949H86.1146ZM76.6762 33.4103C75.8262 33.7325 74.6631 33.9166 73.1869 33.9166C68.5344 33.9166 66.2528 31.7536 66.2976 26.9214L66.3871 14.8181H62.4056V10.3081H66.3871L66.4318 4.60153H71.2185L71.1738 10.3081H76.6762V14.8181H71.129L71.0395 25.863C71.0395 28.4401 71.8 29.4526 74.1263 29.4526C75.1105 29.4526 75.9604 29.3145 76.6762 29.0844V33.4103ZM21.2494 26.4611C19.8178 31.2932 16.2837 34.1005 11.0497 34.1005C7.78398 34.1005 5.09985 32.996 3.04202 30.787C1.02892 28.578 0 25.6327 0 21.9971C0 18.4535 1.02892 15.5082 3.04202 13.2532C5.05511 10.9522 7.73924 9.80169 11.0497 9.80169C17.2679 9.80169 21.4283 14.0356 21.4283 21.767V23.6538H4.92091C5.14458 27.3815 7.64977 29.7746 11.1839 29.7746C13.9575 29.7746 15.7469 28.6701 16.5969 26.4611H21.2494ZM4.96759 19.8353H16.6436C16.5988 16.3377 14.362 14.0827 11.0069 14.0827C7.60699 14.0827 5.28074 16.4758 4.96759 19.8353ZM32.0293 34.1005C35.1161 34.1005 37.3528 32.904 38.6949 30.5569L38.9186 33.5943H43.1237V18.2695C43.1237 12.793 39.9475 9.80169 34.624 9.80169C32.074 9.80169 30.0162 10.584 28.4505 12.1027C26.8847 13.6214 26.0347 15.5082 25.9453 17.8553H30.553C30.553 15.6003 32.2977 14.1736 34.624 14.1736C37.0844 14.1736 38.337 15.5542 38.337 18.3615V19.42L31.8951 20.6165C27.4663 21.4909 25.2742 23.7459 25.2742 27.4735C25.2742 31.5694 27.9584 34.1005 32.0293 34.1005ZM30.0623 27.2449C30.0623 28.8556 31.1807 29.868 33.149 29.868C34.9832 29.868 36.3253 29.1317 37.2647 27.613C37.9805 26.5546 38.3384 25.358 38.3384 23.9314V23.103L32.9254 24.2995C31.0017 24.7137 30.0623 25.7262 30.0623 27.2449ZM54.0858 33.5949V21.4915C54.1305 19.3286 54.7568 17.6718 56.0541 16.5673C57.2173 15.5089 58.7383 15.0026 60.5724 15.0026V10.0784C56.9936 10.0784 54.7568 11.8732 53.9068 14.2663L53.5042 10.3085H49.3438V33.5949H54.0858ZM109.243 28.6248C110.496 29.7753 110.496 31.9383 109.243 33.1809C108.035 34.4234 105.977 34.4234 104.769 33.1809C103.562 31.9383 103.562 29.7753 104.769 28.6248C105.977 27.3823 108.035 27.3823 109.243 28.6248Z" fill="black"/>
<path fill-rule="evenodd" clip-rule="evenodd" d="M182.511 33.4918C185.85 33.4918 188.377 32.2714 190.092 29.7855L190.408 32.9946H194.604V0H189.821V12.9718C188.242 10.7571 185.85 9.62719 182.556 9.62719C179.443 9.62719 176.916 10.7571 174.885 13.0622C172.9 15.3221 171.907 18.1696 171.907 21.5595C171.907 24.9493 172.9 27.7968 174.885 30.1019C176.871 32.3618 179.398 33.4918 182.511 33.4918ZM166.805 5.42417C168.791 3.75184 167.302 0.0455975 164.594 0.22639C162.925 0.22639 161.526 1.53713 161.526 3.29986C161.3 5.92135 165 7.27729 166.805 5.42417ZM133.415 35.3906C133.415 40.3172 129.67 43.2099 123.668 43.2099C117.126 43.2099 113.516 40.6788 113.516 36.159C113.516 34.3511 114.328 32.9951 115.952 32.046C114.012 30.916 113.064 29.3341 113.064 27.255C113.064 25.3115 113.832 23.7295 115.411 22.5092C114.418 21.108 113.922 19.5713 113.922 17.8086C113.922 15.4131 114.734 13.4696 116.404 11.9328C118.073 10.3961 120.239 9.62773 122.901 9.62773C124.029 9.62773 125.112 9.80852 126.15 10.1249H134.588V14.2831H130.933C131.43 15.4131 131.7 16.5882 131.7 17.8086C131.7 20.1137 130.888 22.0572 129.264 23.5939C127.639 25.0855 125.518 25.8538 122.901 25.8538C121.232 25.8538 119.788 25.5375 118.479 24.9499C117.983 25.4471 117.757 26.0798 117.757 26.8934C117.757 28.2041 118.75 29.0177 120.374 29.0177H126.105C130.843 29.0177 133.415 31.368 133.415 35.3906ZM118.616 17.8076C118.616 20.2031 120.331 22.0111 122.858 22.0111C125.385 22.0111 127.054 20.2031 127.054 17.8076C127.054 15.2765 125.385 13.559 122.858 13.559C120.286 13.559 118.616 15.2765 118.616 17.8076ZM123.671 39.3224C120.242 39.3224 118.256 38.1472 118.256 35.8421C118.256 34.0342 119.429 33.0398 121.099 32.9042H125.025C127.507 32.9042 128.725 33.8082 128.725 35.6613C128.725 38.102 127.055 39.3224 123.671 39.3224ZM151.015 29.9212C149.842 32.3167 147.766 33.4919 144.833 33.4919C140.005 33.4919 137.523 30.1924 137.523 24.9495V10.1245H142.306V24.0003C142.306 27.2094 143.569 28.8365 146.141 28.8365C148.849 28.8365 150.744 26.5766 150.744 22.6444V10.1245H155.527V32.9947H151.331L151.015 29.9212ZM166.989 10.1245V32.9947H162.205V10.1245H166.989ZM176.871 21.5603C176.871 25.9445 179.533 28.9728 183.369 28.9728C185.129 28.9728 186.663 28.34 187.926 27.0292C189.235 25.7185 189.867 23.9558 189.867 21.7411V21.5151C189.867 19.3004 189.235 17.5376 187.926 16.2269C186.618 14.871 185.129 14.193 183.414 14.193C179.624 14.193 176.871 17.2213 176.871 21.5603ZM210.532 33.4923C215.811 33.4923 219.376 30.7352 220.82 25.9894H216.127C215.27 28.1589 213.465 29.2437 210.667 29.2437C207.102 29.2437 204.575 26.8934 204.35 23.2324H221V21.3792C221 13.786 216.804 9.62773 210.532 9.62773C207.192 9.62773 204.485 10.7577 202.454 13.0176C200.424 15.2323 199.386 18.125 199.386 21.6052C199.386 25.1759 200.424 28.0685 202.454 30.2381C204.53 32.4076 207.238 33.4923 210.532 33.4923ZM204.395 19.4804H216.172C216.127 16.0454 213.871 13.8306 210.486 13.8306C207.057 13.8306 204.71 16.1809 204.395 19.4804Z" fill="#FF5600"/>
</svg>
