<?xml version="1.0" encoding="UTF-8" standalone="no"?>
<svg
   xmlns:dc="http://purl.org/dc/elements/1.1/"
   xmlns:cc="http://creativecommons.org/ns#"
   xmlns:rdf="http://www.w3.org/1999/02/22-rdf-syntax-ns#"
   xmlns:svg="http://www.w3.org/2000/svg"
   xmlns="http://www.w3.org/2000/svg"
   xmlns:sodipodi="http://sodipodi.sourceforge.net/DTD/sodipodi-0.dtd"
   xmlns:inkscape="http://www.inkscape.org/namespaces/inkscape"
   class="logo-sw"
   version="1.1"
   x="0"
   y="0"
   viewBox="0 0 430 63"
   width="430"
   height="63"
   id="svg7"
   sodipodi:docname="sw-logo.svg"
   inkscape:export-filename="/home/mattez/Pictures/tmp/sw-logo.png"
   inkscape:export-xdpi="67"
   inkscape:export-ydpi="67"
   inkscape:version="0.92.2 (unknown)">
  <metadata
     id="metadata13">
    <rdf:RDF>
      <cc:Work
         rdf:about="">
        <dc:format>image/svg+xml</dc:format>
        <dc:type
           rdf:resource="http://purl.org/dc/dcmitype/StillImage" />
        <dc:title></dc:title>
      </cc:Work>
    </rdf:RDF>
  </metadata>
  <defs
     id="defs11" />
  <sodipodi:namedview
     pagecolor="#ffffff"
     bordercolor="#666666"
     borderopacity="1"
     objecttolerance="10"
     gridtolerance="10"
     guidetolerance="10"
     inkscape:pageopacity="0"
     inkscape:pageshadow="2"
     inkscape:window-width="1631"
     inkscape:window-height="1026"
     id="namedview9"
     showgrid="false"
     inkscape:zoom="0.75581395"
     inkscape:cx="215"
     inkscape:cy="31.5"
     inkscape:window-x="49"
     inkscape:window-y="24"
     inkscape:window-maximized="1"
     inkscape:current-layer="svg7" />
  <style
     type="text/css"
     id="style2">
		.st0 {
			fill: #004289;
		}
		.st1 {
			fill: #FF8C00;
		}
	</style>
  <path
     class="st0"
     d="M0 46.2l7.4-8.7c1.2 1.4 2.6 2.5 4 3.2 1.4.7 2.6 1.1 3.9 1.1.5 0 .9-.1 1.2-.4.4-.2.6-.5.6-.9.1-.6-.5-1.2-1.9-1.9l-.1-.1-2.2-1.1c-1.7-1-3-2-3.6-3.2-.7-1.2-.9-2.7-.6-4.4.6-3.1 2.4-5.6 5.2-7.6 3-2 6.5-3 10.5-3 2.1 0 4.2.2 6.1.9 2 .6 4 1.5 5.9 2.7l-6.6 8c-.9-1-1.9-1.6-2.7-2.1-.9-.5-1.7-.7-2.6-.7-.5 0-1 .1-1.4.4-.4.2-.6.5-.6.9-.1.5.5 1 1.6 1.5.4.1.6.2.7.4l1.7.9c1.9.9 3.1 1.9 3.9 3.1.7 1.2.9 2.9.5 4.7-.6 3.4-2.5 6.1-5.5 8.2-3 2.1-6.7 3.1-11.2 3.1-2.4 0-4.7-.4-7.1-1.2-2.4-.9-4.7-2.1-7.1-3.7M28.8 50.2l11.5-29.8h14.3l-1.7 4.2c2.2-1.9 4.2-3.1 6.2-4 1.9-.9 3.9-1.2 5.7-1.2 2 0 3.6.5 4.7 1.5 1.2 1 2 2.5 2.4 4.5 1.9-2 3.9-3.5 6.1-4.4 2.2-1 4.5-1.5 6.9-1.5 2.9 0 5.1.9 6.6 2.5s2 3.9 1.5 6.6c-.1.7-.4 1.5-.6 2.5-.2.9-.6 1.9-1 3l-6.2 16.2H69.9l6-15c.1-.4.4-.9.5-1.4.1-.5.2-1 .4-1.5.1-.6 0-1-.2-1.4-.2-.4-.6-.5-1.2-.5-1.1 0-2 .5-2.7 1.4-.7.9-1.6 2.6-2.6 5.1L65 50.2H49.3l6-15c.2-.5.4-1 .5-1.5.1-.5.2-.9.2-1.2.1-.6 0-1.2-.2-1.5-.2-.4-.6-.5-1.2-.5-1 0-2 .5-2.7 1.4-.7.9-1.6 2.6-2.6 5.1L44 50.3H28.8M120.7 20.4h14.8L124 50.2h-14.3l1.9-4c-1.6 1.7-3.4 3-5.1 3.9-1.7.9-3.6 1.2-5.6 1.2-3.5 0-6.1-1.2-7.9-3.7-1.7-2.5-2.4-5.6-1.6-9.6.4-2.2 1.2-4.5 2.4-6.6s2.6-4.1 4.4-6c2-2 4-3.5 6.2-4.5s4.4-1.5 6.7-1.5c2 0 3.7.4 5.1 1.2 1.4.9 2.4 2.2 3.1 4l1.4-4.2zm-8.6 11.1c-1.2 0-2.4.5-3.2 1.4-1 .9-1.6 2-1.9 3.5-.2 1.1 0 1.9.4 2.5.5.6 1.2.9 2.2.9 1.4 0 2.5-.4 3.5-1.2 1-.9 1.6-2 1.9-3.2.2-1.1 0-2-.5-2.6-.5-.6-1.4-1-2.5-1M126.8 50.2l11.5-29.8h14l-1.9 4.1c1.4-1.7 2.9-3 4.5-3.7 1.6-.9 3.4-1.2 5.2-1.2.5 0 1 0 1.6.1.6.1 1.2.2 2.1.4l-4.6 12.2c-1-.4-1.9-.6-2.7-.7-.9-.1-1.6-.2-2.2-.2-1.7 0-3.1.4-4.2 1.2-1 .9-2 2.4-2.9 4.6L142 50.3h-15.2M161.9 31.1l-7.4 19.1h15.2l7.4-19.1h4.7l4.1-10.7h-4.7l3.2-8.4h-15.2l-3.2 8.4-4.1 10.7M186.8 50.2V20.4h14.6l-.4 6.5c0 .9-.1 1.7-.2 2.7-.1 1-.4 2.4-.6 4.2l9.2-13.6h10l-.4 7.5c-.1 1-.1 1.9-.2 2.6-.1.7-.1 1.5-.2 2.1-.1.5-.1.7-.2 1 0 .2-.1.4-.1.6l9.5-14h15.6l-22.7 29.8H208l1.4-14.8c-.9 1.6-2.2 3.7-4 6.2-.2.4-.5.6-.6.7l-5.5 7.7H187M232.7 50.2l11.5-29.8h15.2l-11.5 29.8h-15.2M251 50.2l11.5-29.8h14.3l-1.7 4.2c2.2-1.7 4.4-3.1 6.4-4 2-.9 4-1.4 6-1.2 2.7 0 4.9.9 6.2 2.5 1.4 1.6 1.9 3.7 1.4 6.5-.1.7-.4 1.6-.6 2.6-.2 1-.6 2-1 3.1l-6.2 16.2H272l5.7-15c.2-.5.4-1 .5-1.5.1-.5.2-1 .4-1.4.1-.5 0-1-.2-1.4-.2-.4-.7-.5-1.2-.5-1.1 0-2.1.5-3 1.4-.9 1-1.7 2.6-2.6 5l-5.1 13.3H251M324.1 20.5h14.8l-10.5 26.9c-2 5.1-5 9-9 11.6-4 2.6-8.7 4-14.5 4-2.5 0-5-.2-7.2-.9-2.4-.6-4.7-1.5-7.1-2.6l6.7-8.6c1.2.9 2.5 1.5 3.7 1.9 1.2.4 2.6.6 4 .6 2 0 3.7-.5 5.2-1.6s2.9-2.6 3.7-4.6l1.2-2.5c-1.6 1.6-3.4 2.9-5.2 3.7-1.7.9-3.6 1.2-5.5 1.2-3.6 0-6.4-1.1-8.1-3.2-1.7-2.2-2.4-5.1-1.7-8.6.4-2.1 1.1-4.2 2.4-6.4 1.1-2.1 2.6-4.1 4.4-5.9 2-2 4-3.5 6.2-4.5s4.4-1.5 6.7-1.5c2 0 3.7.4 5.1 1.2 1.4.9 2.4 2.1 3.1 3.9l1.4-4.4.2.3zm-8.4 10.9c-1.2 0-2.4.4-3.4 1.2-1 .9-1.6 2-1.9 3.4-.2 1.1 0 1.9.4 2.5.5.6 1.2.9 2.2.9 1.4 0 2.5-.4 3.5-1.2 1-.9 1.6-1.9 1.9-3.2.2-1 0-1.9-.5-2.5-.5-.6-1.4-1-2.5-1M330.4 46.3l7.4-8.7c1.2 1.4 2.6 2.5 4 3.2s2.6 1.1 3.9 1.1c.5 0 .9-.1 1.2-.4.4-.2.6-.5.6-.9.1-.5-.5-1.2-1.9-1.9l-.1-.1-2.2-1.1c-1.7-1-3-2-3.6-3.2-.7-1.2-.9-2.7-.6-4.4.6-3.1 2.4-5.6 5.2-7.6 3-2 6.5-3 10.5-3 2.1 0 4.2.2 6.1.9 2 .6 4 1.5 5.9 2.7l-6.6 8c-.9-1-1.9-1.6-2.7-2.1-.9-.5-1.7-.7-2.6-.7-.5 0-1 .1-1.4.4-.4.2-.6.5-.6.9-.1.5.5 1 1.6 1.5.4.1.6.2.7.4l1.7.9c1.9.9 3.1 1.9 3.9 3.1s.9 2.9.5 4.7c-.6 3.4-2.5 6.1-5.5 8.2s-6.7 3.1-11.2 3.1c-2.4 0-4.7-.4-7.1-1.2-2.4-.9-4.7-2.1-7.1-3.7"
     id="path4" />
  <path
     id="wing"
     class="st1"
     d="M382.3 5.9c3.1-.4 10.8-1.5 13.6-2.1 2.7-.6 18.1-2.9 25.9-3 7.9-.1 7.5.4 7.6 1.9.2 1.5.9 2 0 3.4-1 1.4-2.6 2-5 2.9-4.4 1.7-23.7 6.9-26.3 8.2 4-.2 9.8-1.2 15.6-1.5 3.9-.1 4.4.7 4.7 2.5.4 1.7.5 2.6-2.1 3.6s-5.6 2.1-11.7 3.9c-8.5 2.5-13.6 3.6-19.9 6.4 3.5.4 9.2-.2 13.8 0 6.9.2 7.2 1 7.5 3.1.1 2 .4 2.6-2.5 4-2.9 1.2-8 2.6-10.8 3.2-2.9.6-13.7 3-15.8 3.5-1.9.5-3.5 2.6-6.4 3.6-3.2 1.1-4.6.6-5.7-1.6-.7-1.7 1.4-3.2 4-4 2.6-.7 10.6-2.5 14-3.4 3.4-.9 10.1-2.7 12.3-3.6-3 0-10.3.1-16 .2-3.4.1-4.6-.1-5.1-2.6s.5-3.4 3.5-4.2c3-1 7.5-3 10.3-4s11-3.9 13.2-4.4c-5.5-.1-17.8 2.6-20.9 3.2-2.5.5-2.7-.4-3.7-2-1-1.7.2-2.9 1.7-3.2 1.9-.5 5.5-2.2 10.6-4.2 4.1-1.6 9.8-3.4 14.1-4.7 4-1.4 10.8-3.7 13.1-4.6-1.7 0-9.8 1.1-15.2 1.9-5.2.7-14.3 2.6-15.7 3.1-1.4.5-3 .4-3.9-1.7s-.1-3.2 1.2-3.4" />
</svg>
